<svg aria-roledescription="er" viewBox="0 0 361.4906005859375 532" style="max-width: 361.491px; background-color: white;" xmlns:xlink="http://www.w3.org/1999/xlink" xmlns="http://www.w3.org/2000/svg" width="100%" id="mermaid-0"><style>#mermaid-0{font-family:"trebuchet ms",verdana,arial,sans-serif;font-size:16px;fill:#000000;}#mermaid-0 .error-icon{fill:#552222;}#mermaid-0 .error-text{fill:#552222;stroke:#552222;}#mermaid-0 .edge-thickness-normal{stroke-width:2px;}#mermaid-0 .edge-thickness-thick{stroke-width:3.5px;}#mermaid-0 .edge-pattern-solid{stroke-dasharray:0;}#mermaid-0 .edge-pattern-dashed{stroke-dasharray:3;}#mermaid-0 .edge-pattern-dotted{stroke-dasharray:2;}#mermaid-0 .marker{fill:#000000;stroke:#000000;}#mermaid-0 .marker.cross{stroke:#000000;}#mermaid-0 svg{font-family:"trebuchet ms",verdana,arial,sans-serif;font-size:16px;}#mermaid-0 .entityBox{fill:#cde498;stroke:#13540c;}#mermaid-0 .attributeBoxOdd{fill:#ffffff;stroke:#13540c;}#mermaid-0 .attributeBoxEven{fill:#f2f2f2;stroke:#13540c;}#mermaid-0 .relationshipLabelBox{fill:hsl(78.1578947368, 58.4615384615%, 84.5098039216%);opacity:0.7;background-color:hsl(78.1578947368, 58.4615384615%, 84.5098039216%);}#mermaid-0 .relationshipLabelBox rect{opacity:0.5;}#mermaid-0 .relationshipLine{stroke:#000000;}#mermaid-0 .entityTitleText{text-anchor:middle;font-size:18px;fill:#000000;}#mermaid-0 :root{--mermaid-font-family:"trebuchet ms",verdana,arial,sans-serif;}</style><g/><defs><marker orient="auto" markerHeight="18" markerWidth="18" refY="9" refX="0" id="ONLY_ONE_START"><path d="M9,0 L9,18 M15,0 L15,18" fill="none" stroke="gray"/></marker></defs><defs><marker orient="auto" markerHeight="18" markerWidth="18" refY="9" refX="18" id="ONLY_ONE_END"><path d="M3,0 L3,18 M9,0 L9,18" fill="none" stroke="gray"/></marker></defs><defs><marker orient="auto" markerHeight="18" markerWidth="30" refY="9" refX="0" id="ZERO_OR_ONE_START"><circle r="6" cy="9" cx="21" fill="white" stroke="gray"/><path d="M9,0 L9,18" fill="none" stroke="gray"/></marker></defs><defs><marker orient="auto" markerHeight="18" markerWidth="30" refY="9" refX="30" id="ZERO_OR_ONE_END"><circle r="6" cy="9" cx="9" fill="white" stroke="gray"/><path d="M21,0 L21,18" fill="none" stroke="gray"/></marker></defs><defs><marker orient="auto" markerHeight="36" markerWidth="45" refY="18" refX="18" id="ONE_OR_MORE_START"><path d="M0,18 Q 18,0 36,18 Q 18,36 0,18 M42,9 L42,27" fill="none" stroke="gray"/></marker></defs><defs><marker orient="auto" markerHeight="36" markerWidth="45" refY="18" refX="27" id="ONE_OR_MORE_END"><path d="M3,9 L3,27 M9,18 Q27,0 45,18 Q27,36 9,18" fill="none" stroke="gray"/></marker></defs><defs><marker orient="auto" markerHeight="36" markerWidth="57" refY="18" refX="18" id="ZERO_OR_MORE_START"><circle r="6" cy="18" cx="48" fill="white" stroke="gray"/><path d="M0,18 Q18,0 36,18 Q18,36 0,18" fill="none" stroke="gray"/></marker></defs><defs><marker orient="auto" markerHeight="36" markerWidth="57" refY="18" refX="39" id="ZERO_OR_MORE_END"><circle r="6" cy="18" cx="9" fill="white" stroke="gray"/><path d="M21,18 Q39,0 57,18 Q39,36 21,18" fill="none" stroke="gray"/></marker></defs><path style="stroke: gray; fill: none;" marker-start="url(#ZERO_OR_MORE_START)" marker-end="url(#ONLY_ONE_END)" d="M291.49058532714844,311L291.49058532714844,321.1666666666667C291.49058532714844,331.3333333333333,291.49058532714844,351.6666666666667,291.49058532714844,370.1666666666667C291.49058532714844,388.6666666666667,291.49058532714844,405.3333333333333,291.49058532714844,413.6666666666667L291.49058532714844,422" class="er relationshipLine"/><path style="stroke: gray; fill: none;" marker-start="url(#ZERO_OR_MORE_START)" marker-end="url(#ONLY_ONE_END)" d="M228.76877203441802,88L239.2224075832064,96.33333333333333C249.67604313199482,104.66666666666667,270.5833142295716,121.33333333333333,281.03694977836,139.83333333333334C291.49058532714844,158.33333333333334,291.49058532714844,178.66666666666666,291.49058532714844,188.83333333333334L291.49058532714844,199" class="er relationshipLine"/><path style="stroke: gray; fill: none;" marker-start="url(#ZERO_OR_MORE_START)" marker-end="url(#ONLY_ONE_END)" d="M143.46710595630464,88L133.01347040751622,96.33333333333333C122.55983485872783,104.66666666666667,101.65256376115103,121.33333333333333,91.19892821236262,138C80.74529266357422,154.66666666666666,80.74529266357422,171.33333333333334,80.74529266357422,179.66666666666666L80.74529266357422,188" class="er relationshipLine"/><g transform="translate(20,188 )" id="entity-PetshopService-7fc06cfe-1c08-41fa-9714-aa645d63de0e"><rect height="134" width="121.49058532714844" y="0" x="0" class="er entityBox"/><text style="dominant-baseline: middle; text-anchor: middle; font-size: 12px;" transform="translate(60.74529266357422,12)" y="0" x="0" id="text-entity-PetshopService-7fc06cfe-1c08-41fa-9714-aa645d63de0e" class="er entityLabel">PetshopService</text><rect height="22" width="37.39605712890625" y="24" x="0" class="er attributeBoxOdd"/><text style="dominant-baseline: middle; font-size: 10.2px;" transform="translate(5,35)" y="0" x="0" id="text-entity-PetshopService-7fc06cfe-1c08-41fa-9714-aa645d63de0e-attr-1-type" class="er entityLabel">String</text><rect height="22" width="61.40684509277344" y="24" x="37.39605712890625" class="er attributeBoxOdd"/><text style="dominant-baseline: middle; font-size: 10.2px;" transform="translate(42.39605712890625,35)" y="0" x="0" id="text-entity-PetshopService-7fc06cfe-1c08-41fa-9714-aa645d63de0e-attr-1-name" class="er entityLabel">id</text><rect height="22" width="22.68768310546875" y="24" x="98.80290222167969" class="er attributeBoxOdd"/><text style="dominant-baseline: middle; font-size: 10.2px;" transform="translate(103.80290222167969,35)" y="0" x="0" id="text-entity-PetshopService-7fc06cfe-1c08-41fa-9714-aa645d63de0e-attr-1-key" class="er entityLabel">PK</text><rect height="22" width="37.39605712890625" y="46" x="0" class="er attributeBoxEven"/><text style="dominant-baseline: middle; font-size: 10.2px;" transform="translate(5,57)" y="0" x="0" id="text-entity-PetshopService-7fc06cfe-1c08-41fa-9714-aa645d63de0e-attr-2-type" class="er entityLabel">String</text><rect height="22" width="61.40684509277344" y="46" x="37.39605712890625" class="er attributeBoxEven"/><text style="dominant-baseline: middle; font-size: 10.2px;" transform="translate(42.39605712890625,57)" y="0" x="0" id="text-entity-PetshopService-7fc06cfe-1c08-41fa-9714-aa645d63de0e-attr-2-name" class="er entityLabel">title</text><rect height="22" width="22.68768310546875" y="46" x="98.80290222167969" class="er attributeBoxEven"/><text style="dominant-baseline: middle; font-size: 10.2px;" transform="translate(103.80290222167969,57)" y="0" x="0" id="text-entity-PetshopService-7fc06cfe-1c08-41fa-9714-aa645d63de0e-attr-2-key" class="er entityLabel"/><rect height="22" width="37.39605712890625" y="68" x="0" class="er attributeBoxOdd"/><text style="dominant-baseline: middle; font-size: 10.2px;" transform="translate(5,79)" y="0" x="0" id="text-entity-PetshopService-7fc06cfe-1c08-41fa-9714-aa645d63de0e-attr-3-type" class="er entityLabel">String</text><rect height="22" width="61.40684509277344" y="68" x="37.39605712890625" class="er attributeBoxOdd"/><text style="dominant-baseline: middle; font-size: 10.2px;" transform="translate(42.39605712890625,79)" y="0" x="0" id="text-entity-PetshopService-7fc06cfe-1c08-41fa-9714-aa645d63de0e-attr-3-name" class="er entityLabel">description</text><rect height="22" width="22.68768310546875" y="68" x="98.80290222167969" class="er attributeBoxOdd"/><text style="dominant-baseline: middle; font-size: 10.2px;" transform="translate(103.80290222167969,79)" y="0" x="0" id="text-entity-PetshopService-7fc06cfe-1c08-41fa-9714-aa645d63de0e-attr-3-key" class="er entityLabel"/><rect height="22" width="37.39605712890625" y="90" x="0" class="er attributeBoxEven"/><text style="dominant-baseline: middle; font-size: 10.2px;" transform="translate(5,101)" y="0" x="0" id="text-entity-PetshopService-7fc06cfe-1c08-41fa-9714-aa645d63de0e-attr-4-type" class="er entityLabel">Int</text><rect height="22" width="61.40684509277344" y="90" x="37.39605712890625" class="er attributeBoxEven"/><text style="dominant-baseline: middle; font-size: 10.2px;" transform="translate(42.39605712890625,101)" y="0" x="0" id="text-entity-PetshopService-7fc06cfe-1c08-41fa-9714-aa645d63de0e-attr-4-name" class="er entityLabel">value</text><rect height="22" width="22.68768310546875" y="90" x="98.80290222167969" class="er attributeBoxEven"/><text style="dominant-baseline: middle; font-size: 10.2px;" transform="translate(103.80290222167969,101)" y="0" x="0" id="text-entity-PetshopService-7fc06cfe-1c08-41fa-9714-aa645d63de0e-attr-4-key" class="er entityLabel"/><rect height="22" width="37.39605712890625" y="112" x="0" class="er attributeBoxOdd"/><text style="dominant-baseline: middle; font-size: 10.2px;" transform="translate(5,123)" y="0" x="0" id="text-entity-PetshopService-7fc06cfe-1c08-41fa-9714-aa645d63de0e-attr-5-type" class="er entityLabel">Int</text><rect height="22" width="61.40684509277344" y="112" x="37.39605712890625" class="er attributeBoxOdd"/><text style="dominant-baseline: middle; font-size: 10.2px;" transform="translate(42.39605712890625,123)" y="0" x="0" id="text-entity-PetshopService-7fc06cfe-1c08-41fa-9714-aa645d63de0e-attr-5-name" class="er entityLabel">duration</text><rect height="22" width="22.68768310546875" y="112" x="98.80290222167969" class="er attributeBoxOdd"/><text style="dominant-baseline: middle; font-size: 10.2px;" transform="translate(103.80290222167969,123)" y="0" x="0" id="text-entity-PetshopService-7fc06cfe-1c08-41fa-9714-aa645d63de0e-attr-5-key" class="er entityLabel"/></g><g transform="translate(241.49058532714844,422 )" id="entity-Customer-9c2cf0fd-c019-4033-b513-c7376b1e696d"><rect height="90" width="100" y="0" x="0" class="er entityBox"/><text style="dominant-baseline: middle; text-anchor: middle; font-size: 12px;" transform="translate(50,12)" y="0" x="0" id="text-entity-Customer-9c2cf0fd-c019-4033-b513-c7376b1e696d" class="er entityLabel">Customer</text><rect height="22" width="37.93397521972656" y="24" x="0" class="er attributeBoxOdd"/><text style="dominant-baseline: middle; font-size: 10.2px;" transform="translate(5,35)" y="0" x="0" id="text-entity-Customer-9c2cf0fd-c019-4033-b513-c7376b1e696d-attr-1-type" class="er entityLabel">String</text><rect height="22" width="38.840423583984375" y="24" x="37.93397521972656" class="er attributeBoxOdd"/><text style="dominant-baseline: middle; font-size: 10.2px;" transform="translate(42.93397521972656,35)" y="0" x="0" id="text-entity-Customer-9c2cf0fd-c019-4033-b513-c7376b1e696d-attr-1-name" class="er entityLabel">id</text><rect height="22" width="23.225601196289062" y="24" x="76.77439880371094" class="er attributeBoxOdd"/><text style="dominant-baseline: middle; font-size: 10.2px;" transform="translate(81.77439880371094,35)" y="0" x="0" id="text-entity-Customer-9c2cf0fd-c019-4033-b513-c7376b1e696d-attr-1-key" class="er entityLabel">PK</text><rect height="22" width="37.93397521972656" y="46" x="0" class="er attributeBoxEven"/><text style="dominant-baseline: middle; font-size: 10.2px;" transform="translate(5,57)" y="0" x="0" id="text-entity-Customer-9c2cf0fd-c019-4033-b513-c7376b1e696d-attr-2-type" class="er entityLabel">String</text><rect height="22" width="38.840423583984375" y="46" x="37.93397521972656" class="er attributeBoxEven"/><text style="dominant-baseline: middle; font-size: 10.2px;" transform="translate(42.93397521972656,57)" y="0" x="0" id="text-entity-Customer-9c2cf0fd-c019-4033-b513-c7376b1e696d-attr-2-name" class="er entityLabel">name</text><rect height="22" width="23.225601196289062" y="46" x="76.77439880371094" class="er attributeBoxEven"/><text style="dominant-baseline: middle; font-size: 10.2px;" transform="translate(81.77439880371094,57)" y="0" x="0" id="text-entity-Customer-9c2cf0fd-c019-4033-b513-c7376b1e696d-attr-2-key" class="er entityLabel"/><rect height="22" width="37.93397521972656" y="68" x="0" class="er attributeBoxOdd"/><text style="dominant-baseline: middle; font-size: 10.2px;" transform="translate(5,79)" y="0" x="0" id="text-entity-Customer-9c2cf0fd-c019-4033-b513-c7376b1e696d-attr-3-type" class="er entityLabel">String</text><rect height="22" width="38.840423583984375" y="68" x="37.93397521972656" class="er attributeBoxOdd"/><text style="dominant-baseline: middle; font-size: 10.2px;" transform="translate(42.93397521972656,79)" y="0" x="0" id="text-entity-Customer-9c2cf0fd-c019-4033-b513-c7376b1e696d-attr-3-name" class="er entityLabel">phone</text><rect height="22" width="23.225601196289062" y="68" x="76.77439880371094" class="er attributeBoxOdd"/><text style="dominant-baseline: middle; font-size: 10.2px;" transform="translate(81.77439880371094,79)" y="0" x="0" id="text-entity-Customer-9c2cf0fd-c019-4033-b513-c7376b1e696d-attr-3-key" class="er entityLabel"/></g><g transform="translate(241.49058532714844,199 )" id="entity-Pet-f0bb06b4-5bdd-4eed-9d35-06b76d9ee2ae"><rect height="112" width="100" y="0" x="0" class="er entityBox"/><text style="dominant-baseline: middle; text-anchor: middle; font-size: 12px;" transform="translate(50,12)" y="0" x="0" id="text-entity-Pet-f0bb06b4-5bdd-4eed-9d35-06b76d9ee2ae" class="er entityLabel">Pet</text><rect height="22" width="38.443644205729164" y="24" x="0" class="er attributeBoxOdd"/><text style="dominant-baseline: middle; font-size: 10.2px;" transform="translate(5,35)" y="0" x="0" id="text-entity-Pet-f0bb06b4-5bdd-4eed-9d35-06b76d9ee2ae-attr-1-type" class="er entityLabel">String</text><rect height="22" width="37.821085611979164" y="24" x="38.443644205729164" class="er attributeBoxOdd"/><text style="dominant-baseline: middle; font-size: 10.2px;" transform="translate(43.443644205729164,35)" y="0" x="0" id="text-entity-Pet-f0bb06b4-5bdd-4eed-9d35-06b76d9ee2ae-attr-1-name" class="er entityLabel">id</text><rect height="22" width="23.735270182291668" y="24" x="76.26472981770833" class="er attributeBoxOdd"/><text style="dominant-baseline: middle; font-size: 10.2px;" transform="translate(81.26472981770833,35)" y="0" x="0" id="text-entity-Pet-f0bb06b4-5bdd-4eed-9d35-06b76d9ee2ae-attr-1-key" class="er entityLabel">PK</text><rect height="22" width="38.443644205729164" y="46" x="0" class="er attributeBoxEven"/><text style="dominant-baseline: middle; font-size: 10.2px;" transform="translate(5,57)" y="0" x="0" id="text-entity-Pet-f0bb06b4-5bdd-4eed-9d35-06b76d9ee2ae-attr-2-type" class="er entityLabel">String</text><rect height="22" width="37.821085611979164" y="46" x="38.443644205729164" class="er attributeBoxEven"/><text style="dominant-baseline: middle; font-size: 10.2px;" transform="translate(43.443644205729164,57)" y="0" x="0" id="text-entity-Pet-f0bb06b4-5bdd-4eed-9d35-06b76d9ee2ae-attr-2-name" class="er entityLabel">name</text><rect height="22" width="23.735270182291668" y="46" x="76.26472981770833" class="er attributeBoxEven"/><text style="dominant-baseline: middle; font-size: 10.2px;" transform="translate(81.26472981770833,57)" y="0" x="0" id="text-entity-Pet-f0bb06b4-5bdd-4eed-9d35-06b76d9ee2ae-attr-2-key" class="er entityLabel"/><rect height="22" width="38.443644205729164" y="68" x="0" class="er attributeBoxOdd"/><text style="dominant-baseline: middle; font-size: 10.2px;" transform="translate(5,79)" y="0" x="0" id="text-entity-Pet-f0bb06b4-5bdd-4eed-9d35-06b76d9ee2ae-attr-3-type" class="er entityLabel">Int</text><rect height="22" width="37.821085611979164" y="68" x="38.443644205729164" class="er attributeBoxOdd"/><text style="dominant-baseline: middle; font-size: 10.2px;" transform="translate(43.443644205729164,79)" y="0" x="0" id="text-entity-Pet-f0bb06b4-5bdd-4eed-9d35-06b76d9ee2ae-attr-3-name" class="er entityLabel">age</text><rect height="22" width="23.735270182291668" y="68" x="76.26472981770833" class="er attributeBoxOdd"/><text style="dominant-baseline: middle; font-size: 10.2px;" transform="translate(81.26472981770833,79)" y="0" x="0" id="text-entity-Pet-f0bb06b4-5bdd-4eed-9d35-06b76d9ee2ae-attr-3-key" class="er entityLabel"/><rect height="22" width="38.443644205729164" y="90" x="0" class="er attributeBoxEven"/><text style="dominant-baseline: middle; font-size: 10.2px;" transform="translate(5,101)" y="0" x="0" id="text-entity-Pet-f0bb06b4-5bdd-4eed-9d35-06b76d9ee2ae-attr-4-type" class="er entityLabel">String</text><rect height="22" width="37.821085611979164" y="90" x="38.443644205729164" class="er attributeBoxEven"/><text style="dominant-baseline: middle; font-size: 10.2px;" transform="translate(43.443644205729164,101)" y="0" x="0" id="text-entity-Pet-f0bb06b4-5bdd-4eed-9d35-06b76d9ee2ae-attr-4-name" class="er entityLabel">breed</text><rect height="22" width="23.735270182291668" y="90" x="76.26472981770833" class="er attributeBoxEven"/><text style="dominant-baseline: middle; font-size: 10.2px;" transform="translate(81.26472981770833,101)" y="0" x="0" id="text-entity-Pet-f0bb06b4-5bdd-4eed-9d35-06b76d9ee2ae-attr-4-key" class="er entityLabel"/></g><g transform="translate(102.10391616821289,20 )" id="entity-Appointment-0cb68da6-cf19-4175-ab78-0a2a22121d30"><rect height="68" width="168.02804565429688" y="0" x="0" class="er entityBox"/><text style="dominant-baseline: middle; text-anchor: middle; font-size: 12px;" transform="translate(84.01402282714844,12)" y="0" x="0" id="text-entity-Appointment-0cb68da6-cf19-4175-ab78-0a2a22121d30" class="er entityLabel">Appointment</text><rect height="22" width="54.095550537109375" y="24" x="0" class="er attributeBoxOdd"/><text style="dominant-baseline: middle; font-size: 10.2px;" transform="translate(5,35)" y="0" x="0" id="text-entity-Appointment-0cb68da6-cf19-4175-ab78-0a2a22121d30-attr-1-type" class="er entityLabel">String</text><rect height="22" width="91.24481201171875" y="24" x="54.095550537109375" class="er attributeBoxOdd"/><text style="dominant-baseline: middle; font-size: 10.2px;" transform="translate(59.095550537109375,35)" y="0" x="0" id="text-entity-Appointment-0cb68da6-cf19-4175-ab78-0a2a22121d30-attr-1-name" class="er entityLabel">id</text><rect height="22" width="22.68768310546875" y="24" x="145.34036254882812" class="er attributeBoxOdd"/><text style="dominant-baseline: middle; font-size: 10.2px;" transform="translate(150.34036254882812,35)" y="0" x="0" id="text-entity-Appointment-0cb68da6-cf19-4175-ab78-0a2a22121d30-attr-1-key" class="er entityLabel">PK</text><rect height="22" width="54.095550537109375" y="46" x="0" class="er attributeBoxEven"/><text style="dominant-baseline: middle; font-size: 10.2px;" transform="translate(5,57)" y="0" x="0" id="text-entity-Appointment-0cb68da6-cf19-4175-ab78-0a2a22121d30-attr-2-type" class="er entityLabel">DateTime</text><rect height="22" width="91.24481201171875" y="46" x="54.095550537109375" class="er attributeBoxEven"/><text style="dominant-baseline: middle; font-size: 10.2px;" transform="translate(59.095550537109375,57)" y="0" x="0" id="text-entity-Appointment-0cb68da6-cf19-4175-ab78-0a2a22121d30-attr-2-name" class="er entityLabel">appointmentTime</text><rect height="22" width="22.68768310546875" y="46" x="145.34036254882812" class="er attributeBoxEven"/><text style="dominant-baseline: middle; font-size: 10.2px;" transform="translate(150.34036254882812,57)" y="0" x="0" id="text-entity-Appointment-0cb68da6-cf19-4175-ab78-0a2a22121d30-attr-2-key" class="er entityLabel"/></g><rect height="14" width="34.470703125" y="359.5" x="274.2552490234375" class="er relationshipLabelBox"/><text style="text-anchor: middle; dominant-baseline: middle; font-size: 12px;" y="366.5" x="291.4906005859375" id="rel1" class="er relationshipLabel">owner</text><rect height="14" width="18.23046875" y="127.24154663085938" x="268.4222717285156" class="er relationshipLabelBox"/><text style="text-anchor: middle; dominant-baseline: middle; font-size: 12px;" y="134.24154663085938" x="277.5375061035156" id="rel2" class="er relationshipLabel">pet</text><rect height="14" width="38.306640625" y="122.6083984375" x="78.12564086914062" class="er relationshipLabelBox"/><text style="text-anchor: middle; dominant-baseline: middle; font-size: 12px;" y="129.6083984375" x="97.27896118164062" id="rel3" class="er relationshipLabel">service</text></svg>